<?xml version="1.0" encoding="utf-8"?>
<!-- Generator: Adobe Illustrator 21.1.0, SVG Export Plug-In . SVG Version: 6.00 Build 0)  -->
<svg version="1.1" id="Layer_1_xA0_影像_1_" xmlns="http://www.w3.org/2000/svg" xmlns:xlink="http://www.w3.org/1999/xlink"
	 x="0px" y="0px" viewBox="0 0 254 90" style="enable-background:new 0 0 254 90;" xml:space="preserve">
<style type="text/css">
	.st0{fill:#D9271F;}
	.st1{fill:#FEFDFD;}
</style>
<path class="st0" d="M0,90c0.3-1.5,1.2-2.9,1.7-4.3c0.1-0.3,0.4-0.4,0.7-0.4c0.4,0,0.7,0,1.1,0c81,0,162,0,243,0
	c1.1,0,1.9,0.2,2.7,1.1c1,1.2,2.3,2,3.6,2.8c0.4,0.2,0.8,0.5,1.2,0.8C169.3,90,84.6,90,0,90z"/>
<path class="st0" d="M2.4,62.6c0.6,0,1,0,1.5,0c63.6,0,127.2,0,190.8,0c0.2,0,0.5,0,0.7,0c0.7-0.1,0.8,0.2,0.6,0.8
	c-0.6,1.7-1.2,3.5-1.8,5.2c-1.6,4.8-0.7,9.3,1.4,13.7c0.6,1.3,0.6,1.3-0.8,1.3c-63.7,0-127.3,0-191,0c-1.4,0-1.4,0-0.8-1.3
	c1.4-3,2.5-6.1,2.2-9.6C5,70,4.1,67.5,3.2,65C3.1,64.3,2.8,63.5,2.4,62.6z M14.2,73.1c0,1.6,0,3.1,0,4.7c0,0.8,0.3,1.2,1.1,1.2
	c2,0,3.9,0.1,5.9-0.1c2.1-0.1,3.6-1.8,3.6-3.9c0-1.2,0-2.3,0-3.5c0-2.7-1.6-4.3-4.3-4.4c-1.6,0-3.2,0-4.8,0c-1,0-1.5,0.4-1.5,1.5
	C14.2,70.1,14.2,71.6,14.2,73.1z M172.9,77.3c0-1.2,0-2.3,0-3.5c0-1.3-0.6-2-1.8-2.1c-2.2-0.1-4.4-0.1-6.6,0
	c-1.2,0.1-1.8,0.8-1.8,2.1c0,0.7,0,1.4,0,2.2c0,1.7,0.7,2.4,2.4,2.4c1.2,0,2.4,0,3.6,0c2,0,2,0,1.9,1.9c0,1.3-0.4,1.7-1.7,1.7
	c-0.5,0-1,0-1.6,0c-2,0-2.1,0-2.3-2.1c0-0.4-0.2-0.7-0.6-0.6c-0.5,0.1-1.3-0.3-1.6,0.3c-0.7,1.3,0.3,3,1.9,3.1
	c2.1,0.1,4.2,0.1,6.3,0c1.3,0,1.9-0.8,2-2.1C172.9,79.5,172.9,78.4,172.9,77.3z M99.3,75.1c0,1,0.1,2.1,0,3.1s0.6,0.8,1.2,0.8
	s1.2,0.2,1.2-0.8c-0.1-1.6,0-3.2,0-4.8c0-1,0.5-0.9,1.2-0.9s1.3-0.1,1.2,0.9c-0.1,1.6,0,3.2,0,4.8c0,1.1,0.7,0.8,1.3,0.8
	c0.6,0.1,1.1,0.1,1-0.8c-0.1-1.6,0-3.1,0-4.7c0-0.9,0.2-1.1,1.1-1.1c0.7,0.1,1.5-0.1,1.4,1.1c-0.1,1.6,0,3.1,0,4.7
	c0,1,0.6,0.8,1.2,0.8s1.2,0.2,1.2-0.8c-0.1-1.6-0.1-3.3,0-4.9c0-1.2-0.5-1.5-1.6-1.5c-2.3,0-4.6,0-6.8,0c-0.4,0-0.7,0.1-1.1-0.4
	c-0.4-0.6-1.3-0.3-1.9-0.2c-0.6,0.1-0.3,0.7-0.3,1.1C99.3,73.2,99.3,74.1,99.3,75.1z M118.7,79.1L118.7,79.1c1.2,0,2.3,0,3.5,0
	c1,0,1.5-0.3,1.4-1.4c-0.1-1.2,0-2.5,0-3.7c0-1.6-0.5-2.3-2.1-2.4c-2-0.1-4.1,0-6.1,0c-0.7,0-1.3,0.2-1.8,0.7
	c-0.3,0.4-0.4,0.9-0.3,1.4s0.7,0.3,1,0.3c0.6,0,1.3,0.2,1.3-0.9c0-0.3,0.3-0.6,0.6-0.7c1.5-0.3,3-0.4,4.5,0c1,0.3,0.7,1.3,0.6,2
	c0,0.7-0.7,0.4-1,0.4c-1.6,0-3.3,0-4.9,0c-1.5,0-2.2,0.7-2.2,2.1s0.6,2,2.2,2.1C116.4,79.1,117.5,79.1,118.7,79.1z M32.4,79
	C32.4,79,32.4,79.1,32.4,79c1.2,0,2.3,0,3.5,0c1,0,1.5-0.3,1.4-1.4c-0.1-1.2,0-2.5,0-3.7c0-1.6-0.5-2.3-2.1-2.4c-2-0.1-4.1,0-6.1,0
	c-0.8,0-1.6,0.2-1.9,1c-0.2,0.5-0.5,1.3,0.2,1.4s1.9,0.7,2-0.8c0-0.3,0.3-0.6,0.7-0.6c1.5-0.3,2.9-0.4,4.4,0c1,0.3,0.7,1.2,0.7,1.9
	c-0.1,0.8-0.7,0.4-1.1,0.4c-1.6,0-3.3,0-4.9,0c-1.4,0.1-2.1,0.8-2.2,2c0,1.3,0.6,2,2.1,2.1C30,79.1,31.2,79,32.4,79z M155.7,79.1
	c1.2,0,2.5,0,3.7,0c0.8,0,1.2-0.3,1.1-1.2c-0.1-1.3,0-2.6,0-3.8c0-1.8-0.6-2.4-2.4-2.4c-1.8,0-3.7,0-5.5,0c-0.7,0-1.3,0.1-1.9,0.6
	c-0.5,0.4-0.6,1-0.5,1.5c0.1,0.7,0.7,0.3,1.1,0.4c0.5,0,1.2,0.2,1.1-0.7c0-0.4,0.3-0.7,0.7-0.8c1.5-0.3,3-0.4,4.5,0
	c0.9,0.3,0.7,1.2,0.7,1.9c0,0.8-0.7,0.5-1.1,0.5c-1.7,0-3.4,0-5,0c-1.4,0.1-2.1,0.8-2.1,2.1c0,1.3,0.6,2,2.1,2.1
	C153.3,79.1,154.5,79,155.7,79.1z M79.1,79.1c0.8,0,1.4,0,2.1,0c2.4,0,3.3-0.9,3.3-3.3c0-0.4,0-0.7,0-1.1c0-2-0.9-3-3-3.1
	c-1.5-0.1-3-0.1-4.6,0c-2.1,0.1-3,1.1-3,3.2c0,0.6,0,1.1,0,1.7c0,1.4,0.7,2.2,2.1,2.5C77.1,79.2,78.2,79,79.1,79.1z M54.4,79.1
	c1.3,0,2.6,0,4,0c0.3,0,0.9,0.2,0.9-0.3c0-0.7-0.6-0.4-0.9-0.4c-2,0-4.1,0-6.1,0c-1.2,0-0.8-0.9-0.9-1.5c-0.1-0.7,0.2-1,0.9-1
	c1.4,0.1,2.8,0,4.2,0c3.4,0,2.8,0,2.9-2.9c0-0.9-0.4-1.3-1.3-1.3c-2.6,0-5.2,0-7.8,0c-0.9,0-1.3,0.4-1.3,1.3c0,1.6,0.1,3.1,0,4.7
	c0,1.1,0.5,1.5,1.5,1.5C51.8,79.1,53.1,79.1,54.4,79.1z M180.5,79.1c1.2,0,2.5,0,3.7,0c0.4,0,1.2,0.3,1.2-0.4c0-0.6-0.7-0.3-1.1-0.3
	c-2,0-3.9,0-5.9,0c-1.2,0-0.9-0.8-1-1.5c-0.1-0.8,0.2-1,1-1c1.4,0.1,2.8,0,4.2,0c3,0,3,0,2.8-3c0-0.8-0.3-1.3-1.2-1.3
	c-2.6,0-5.3,0-7.9,0c-0.8,0-1.2,0.4-1.2,1.2c0,1.6,0.1,3.2,0,4.8c0,1.1,0.5,1.4,1.4,1.4C177.9,79.1,179.2,79.1,180.5,79.1z
	 M66.5,75.6c0,0.9,0,1.8,0,2.6c-0.1,0.9,0.6,0.7,1,0.7c0.5-0.1,1.3,0.4,1.3-0.7s0-2.2,0-3.2c0-2.6,0-2.6,2.6-2.6c0.3,0,1,0.2,1-0.3
	c0-0.6-0.6-0.4-0.9-0.4c-2.9-0.1-2.9-0.1-2.6-3c0-0.4,0-0.8,0.6-0.8c0.5,0,0.8,0.2,0.9,0.7c0.2,1.2,1.2,0.6,1.8,0.6
	c0.6-0.1,0.4-0.8,0.3-1.2c-0.2-0.7-0.7-0.8-1.3-0.8c-0.9,0-1.8,0-2.8,0c-1.5,0-1.7,0.3-1.8,1.7c0,0.8,0.3,1.9-0.1,2.5
	c-0.5,0.7-1.6,0.1-2.5,0.3c-0.3,0-0.7-0.2-0.7,0.3s0.4,0.3,0.7,0.4c0.8,0.1,1.9-0.4,2.4,0.2s0.1,1.7,0.2,2.6
	C66.5,75.3,66.5,75.5,66.5,75.6z M41.9,75.5c0,0.8,0,1.5,0,2.3S42.2,79,43,79c1,0,2.1,0,3.1,0c0.2,0,0.5,0,0.5-0.3
	c0-0.4-0.3-0.4-0.6-0.4c-0.2,0-0.5,0-0.7,0c-0.9,0.1-1.2-0.2-1.2-1.1c0.1-1,0-2,0-3c0-1.8,0-1.8,1.8-1.8c0.5,0,1.4,0.4,1.4-0.3
	c0-0.7-0.9-0.3-1.4-0.4c-1.7-0.1-1.7,0-1.9-1.7c-0.1-1-0.8-0.5-1.3-0.6s-1.2-0.2-1,0.7c0.3,1.6-0.6,1.7-1.8,1.6c-0.3,0-0.6,0-0.8,0
	s-0.6-0.1-0.6,0.3c0,0.5,0.4,0.4,0.7,0.4c0.8,0.1,2-0.4,2.4,0.2s0.1,1.7,0.2,2.6C41.9,75.3,41.9,75.4,41.9,75.5z M134.3,71.7
	c-0.8,0.2-1.7-0.3-2.3,0.3c-0.9,1-2,0.9-3.1,0.9c-0.6,0-0.9,0-1-0.8c-0.1-1-1.1-0.4-1.6-0.5c-0.6-0.1-0.6,0.3-0.6,0.7c0,2,0,4,0,6
	c0,1,0.6,0.8,1.1,0.7c0.5,0,1.3,0.3,1.2-0.8c0-0.5,0-1,0-1.6c0-1-0.3-2.3,0.2-2.9c0.5-0.7,1.9-0.1,2.9-0.2c0.4,0,0.8,0,1.2,0
	C133.3,73.4,134,73,134.3,71.7z M86.6,75.4c0,0.9,0,1.8,0,2.6c-0.1,0.8,0.2,1.1,1,1.1c0.7,0,1.3,0,1.2-1c-0.1-1.1,0-2.2,0-3.2
	c-0.1-0.9,0.1-1.3,1.2-1.2c0.9,0.1,1.8,0,2.8,0c0.9,0,1.7-0.3,2.2-1.1c0.3-0.5,0.3-0.8-0.4-0.8c-0.7,0-1.4,0-2,0.6
	c-0.9,0.9-2.2,0.5-3.3,0.5c-0.3,0-0.2-0.4-0.3-0.6c-0.1-1.2-1-0.6-1.5-0.7c-0.7-0.2-0.7,0.4-0.7,0.9C86.6,73.5,86.6,74.4,86.6,75.4z
	 M135.7,75.4c0,1,0,2,0,3c0,1.1,0.8,0.7,1.3,0.7s1,0.1,1-0.7c-0.1-1.3,0-2.6,0-3.8c0-0.8,0.2-0.9,1-0.9c1,0.1,2,0,3,0
	c0.9,0,1.7-0.4,2.2-1.2c0.1-0.2,0.3-0.6,0-0.6c-0.7,0-1.5-0.4-2.1,0.2c-0.8,0.9-1.8,0.9-2.8,0.9c-0.6,0-1.4,0.2-1.2-0.9
	c0.1-0.4-0.2-0.4-0.5-0.4c-1.5-0.2-1.7-0.1-1.7,1.5C135.7,73.8,135.7,74.6,135.7,75.4z M147.9,75.1c0-1-0.1-2.1,0-3.1
	s-0.6-0.8-1.2-0.8c-0.5,0-1.1-0.2-1.1,0.7c0.1,2.1,0.1,4.2,0,6.3c0,1,0.6,0.7,1.1,0.7c0.6,0,1.2,0.2,1.2-0.8
	C147.9,77.2,147.9,76.1,147.9,75.1z M146.8,68.1c-0.4,0.1-1.1-0.4-1.1,0.7c0,1,0.5,0.9,1.1,0.9s1.2,0.2,1.2-0.8
	C148,68,147.5,68.1,146.8,68.1z"/>
<path class="st0" d="M180.4,34.3c1.1-1.2,2-2.3,3.1-3.1c1.9-1.4,4-2.1,6.4-1.5c3.1,0.8,4.7,4.3,3.3,7.1c-1.1,2.2-3.7,2.9-5.8,1.7
	c-0.9-0.6-1.5-1.4-2.2-2.2c-0.9-1-1.8-1.1-2.8-0.2c-1.1,1-1.6,2.3-1.7,3.7c-0.1,4.7-0.2,9.4,0,14.2c0.1,2.3,0.9,3,3.4,3
	c1.2,0,0.9,0.7,1,1.4c0.1,0.9-0.4,0.8-1,0.8c-7.7,0-15.4,0-23.2,0c-2,0-3.9-0.5-5.3-2.1c-0.4-0.5-0.7-0.1-0.9,0.1
	c-2.2,1.8-4.7,2.9-7.5,3.4c-3.2,0.5-6.4-0.9-7.8-3.5c-1.5-2.7-0.9-6.2,1.5-8.6c2.2-2.2,5-3.3,7.9-4.4c1.8-0.7,3.7-1.3,5.6-1.9
	c0.6-0.2,0.9-0.4,0.9-1.1c-0.1-1.6,0.1-3.3-0.1-4.9c-0.2-1.8-1.1-2.9-2.8-3.3c-1.4-0.3-2.9-0.5-4.2,0.3c-1.3,0.7-1.5,1.3-0.6,2.5
	s1.5,2.4,1.1,4c-0.1,0.3-0.2,0.6-0.3,0.9c-0.9,1.6-3.1,2.4-5.4,1.9c-1.8-0.4-2.8-1.7-2.9-3.8c-0.2-2.8,1-4.8,3.3-6.4
	c2.5-1.8,5.5-2.2,8.4-2.2c2.6,0,5.2,0.3,7.6,1.4c3.5,1.5,5.2,4,5.2,7.8c0,5,0,9.9,0,14.9c0,2.1,0.7,2.8,2.8,3.1
	c2.9,0.3,4.3-0.9,4.3-3.8c0-5.8,0-11.6,0-17.4c0-2.6-0.2-2.9-2.7-3.5c-1.1-0.3-0.5-1.1-0.6-1.6c-0.1-0.7,0.4-0.6,0.8-0.6
	c3.6,0,7.1,0,10.7,0c0.7,0,0.9,0.2,0.9,0.9C180.4,32,180.4,33,180.4,34.3z M155.2,49.1c0-1.2,0-2.4,0-3.6c0-0.6-0.2-0.6-0.7-0.5
	c-1.8,0.5-3.3,1.4-4.6,2.7c-1.7,1.9-2.1,4.3-1.1,6.3c0.5,1,1.3,1.5,2.4,1.5c2.1,0,4-1.9,4-4C155.2,50.8,155.2,50,155.2,49.1z"/>
<path class="st0" d="M239,66.8c-0.7,0.3-1,0.8-1.4,1.2c-1.7,2.1-3.2,4.4-4.1,7c-0.8,2.2-2.2,3.2-4.5,3.2c-6.7,0.1-13.3-0.6-19.8-2.2
	c-0.3-0.1-0.7-0.2-1-0.3c-1.5-0.6-1.8-2.1-0.6-3.1c1.3-1.1,2.9-1.8,4.5-2.5c1.4-0.6,2.8-1.3,3.8-2.4c0.5-0.6,1.1-0.4,1.7-0.2
	c2.4,0.8,4.9,1.6,7.1,2.9c0.9,0.5,1.6,0.4,2.2-0.5c0.4-0.6,0.9-1.2,1.3-1.9c0.6-1,1.1-2,1.8-2.9c1.1-1.4,2-2.7,1.7-4.7
	c-0.2-1.4,0.8-2.6,1.6-3.8c0.3-0.4,0.5-0.7,0.3-1.3c-2.5-5.9-4.7-12-7.5-17.7c-0.6-1.2-1.1-2.5-2.8-2.7c-0.8-0.1-0.3-1.1-0.4-1.6
	c-0.1-0.6,0.4-0.5,0.8-0.5c4.8,0,9.7,0,14.5,0c0.8,0,0.8,0.4,0.8,1c-0.1,0.5,0.3,1.3-0.7,1.2c-0.1,0-0.2,0-0.4,0
	c-2.1,0.1-2.5,0.7-1.7,2.7c1.5,3.8,2.9,7.5,4.4,11.3c0.1,0.3,0.2,0.5,0.3,0.7c0.6-0.1,0.5-0.5,0.6-0.8c1.2-3.4,2.4-6.8,3.7-10.1
	c0.1-0.2,0.2-0.5,0.2-0.7c0.6-2.1,0-2.8-2.1-3c-1-0.1-1.6-1-1.1-1.9c0.2-0.3,0.5-0.3,0.7-0.3c2.8,0,5.7,0,8.5,0c0.4,0,0.9,0,0.7,0.6
	c-0.1,0.5,0.5,1.4-0.5,1.6c-1.5,0.2-2.3,1.2-2.8,2.5c-1.6,4.3-3.2,8.5-4.8,12.8c-0.2,0.6,0,1,0.2,1.5c1.1,2.3,1.7,4.8,1.7,7.4
	c0,1.1-0.3,2.1-1,2.9c-2.1,2.3-2.9,5.1-3.3,8.1c-0.3,2.2-0.5,4.4-0.7,6.7c-0.1,0.9-0.5,1.3-1.4,1.2c-1,0-1-0.6-1-1.4
	c0.2-2.4,0.4-4.8,0.6-7.2C239,68.6,239,67.8,239,66.8z"/>
<path class="st0" d="M34.4,61.2c0.9-3.3,1.8-6.4,2.7-9.6c2.3-8.2,4.6-16.4,6.9-24.6c0.3-0.9,0.1-1.2-0.9-1.2c-4.8,0-9.6,0-14.4,0
	c-0.9,0-1.3-0.1-1.1-1.2c0.3-2.3,0.6-4.7,0.8-7c0.1-0.7,0.3-0.9,1-0.9c9.1,0,18.2,0,27.2,0c0.8,0,0.8,0.2,0.7,0.9
	c-3.7,14.2-7.4,28.4-11,42.6c-0.1,0.4,0,0.9-0.7,0.9C41.8,61.1,38.2,61.2,34.4,61.2z"/>
<path class="st0" d="M16.6,61.3c-2.5,0-5,0-7.6,0c-0.7,0-1-0.2-1-0.9c-0.2-1.6,0.3-2.8,1.6-3.3c1.6-0.7,2.2-1.9,2.4-3.4
	c0.5-4.2,1-8.4,1.5-12.6c0.6-5.1,1.2-10.2,1.8-15.3c0.1-0.9,0-1.2-1-1.1c-1.4,0.1-2.8,0-4.2,0.1c-0.7,0-1-0.1-1-0.9
	c-0.1-1.8,0.4-2.5,2.2-3.1c4.1-1.3,8.3-2.5,12.4-3.8h0.1c2.3-0.5,2.7-0.2,2.4,2.1c-1,8.9-2.1,17.8-3.1,26.7
	c-0.3,2.7-0.6,5.5-0.9,8.2c-0.2,1.3,0.2,2.2,1.3,2.8c1.3,0.7,2,1.8,1.9,3.4c0,0.7-0.2,1-1,1c-2.6,0-5.2,0-7.8,0
	C16.6,61.2,16.6,61.2,16.6,61.3z"/>
<path class="st0" d="M207.4,34c1.2-1.3,2.1-2.5,3.3-3.3c1.9-1.3,4-1.9,6.3-1.3c3,0.8,4.5,4.3,3.1,7.1c-1.2,2.3-4,3-6.1,1.4
	c-0.7-0.5-1.3-1.2-1.8-1.9c-0.9-1.1-1.8-1.1-2.9-0.2c-1.3,1.2-1.7,2.9-1.7,4.6c0,4.7-0.2,9.4,0.1,14c0.3,3.7,1.8,5.5,5.4,6.5
	c0.8,0.2,1.5,0.4,2.3,0.6c0.2,0.1,0.5,0.2,0.4,0.5c0,0.2-0.3,0.3-0.4,0.4c-0.2,0.1-0.4,0.1-0.6,0.1c-2.8,0-5.7,0.1-8.5,0
	c-4.1-0.2-7.9-4.3-7.9-8.5c0-6.1,0-12.2,0-18.4c0-2.6-0.3-3-2.7-3.5c-1.1-0.3-0.5-1.1-0.6-1.6c-0.2-0.7,0.4-0.6,0.8-0.6
	c3.5,0,7,0,10.6,0c0.7,0,0.9,0.2,0.9,0.9C207.4,31.8,207.4,32.8,207.4,34z"/>
<path class="st1" d="M14.2,73.1c0-1.5,0-3,0-4.4c0-1.1,0.5-1.5,1.5-1.5c1.6,0,3.2,0,4.8,0c2.7,0.1,4.3,1.7,4.3,4.4
	c0,1.2,0,2.3,0,3.5c0,2.1-1.5,3.8-3.6,3.9c-2,0.1-3.9,0-5.9,0.1c-0.8,0-1.1-0.4-1.1-1.2C14.2,76.2,14.2,74.7,14.2,73.1z M22.4,73.1
	c0-0.5,0-1,0-1.6c0-2.2-1.2-3.5-3.4-3.6c-0.4,0-0.8,0-1.2,0c-1-0.1-1.3,0.2-1.3,1.3c0.1,2.2,0,4.3,0,6.5c0,2.9,0,2.9,2.9,2.6
	c1.8-0.2,3-1.4,3-3.2C22.5,74.4,22.4,73.7,22.4,73.1z"/>
<path class="st1" d="M172.9,77.3c0,1.1,0,2.2,0,3.4c0,1.3-0.7,2.1-2,2.1c-2.1,0.1-4.2,0.1-6.3,0c-1.5-0.1-2.5-1.8-1.9-3.1
	c0.3-0.6,1.1-0.2,1.6-0.3c0.5-0.1,0.6,0.2,0.6,0.6c0.2,2,0.3,2.1,2.3,2.1c0.5,0,1,0,1.6,0c1.3,0,1.7-0.4,1.7-1.7
	c0-1.9,0-1.9-1.9-1.9c-1.2,0-2.4,0-3.6,0c-1.7-0.1-2.4-0.8-2.4-2.4c0-0.7,0-1.4,0-2.2c0-1.3,0.6-2,1.8-2.1c2.2-0.1,4.4-0.1,6.6,0
	c1.2,0.1,1.8,0.8,1.8,2.1C172.9,74.9,172.9,76.1,172.9,77.3z M168.2,77.7c2.4,0,2.4,0,2.4-2c0-3.4,0-3.4-3.4-3.4
	c-1.8,0-2.2,0.4-2.2,2.1C165,77.7,165,77.7,168.2,77.7z"/>
<path class="st1" d="M99.3,75.1c0-1,0-1.9,0-2.9c0-0.4-0.3-1,0.3-1.1c0.6-0.1,1.5-0.4,1.9,0.2c0.3,0.5,0.7,0.4,1.1,0.4
	c2.3,0,4.6,0,6.8,0c1.1,0,1.6,0.3,1.6,1.5c-0.1,1.6-0.1,3.3,0,4.9c0,1-0.6,0.8-1.2,0.8s-1.2,0.2-1.2-0.8c0.1-1.6,0-3.1,0-4.7
	c0.1-1.2-0.7-1-1.4-1.1c-0.8-0.1-1.1,0.2-1.1,1.1c0.1,1.6,0,3.1,0,4.7c0,0.9-0.4,0.9-1,0.8s-1.3,0.3-1.3-0.8c0.1-1.6,0-3.2,0-4.8
	c0-1-0.6-0.9-1.2-0.9c-0.7,0-1.3-0.1-1.2,0.9c0.1,1.6,0,3.2,0,4.8c0,1-0.6,0.8-1.2,0.8S99,79.1,99,78.1
	C99.4,77.2,99.3,76.1,99.3,75.1z"/>
<path class="st1" d="M118.7,79.1c-1.2,0-2.3,0-3.5,0c-1.6-0.1-2.2-0.7-2.2-2.1c0-1.3,0.7-2,2.2-2.1c1.6-0.1,3.3,0,4.9,0
	c0.4,0,1,0.3,1-0.4c0-0.7,0.3-1.7-0.6-2c-1.5-0.4-3-0.3-4.5,0c-0.3,0.1-0.6,0.3-0.6,0.7c0.1,1.1-0.6,0.9-1.3,0.9
	c-0.4,0-0.9,0.2-1-0.3s-0.1-1,0.3-1.4c0.5-0.6,1.1-0.7,1.8-0.7c2,0,4.1-0.1,6.1,0c1.6,0.1,2.1,0.7,2.1,2.4c0,1.2-0.1,2.5,0,3.7
	c0.1,1.1-0.5,1.4-1.4,1.4C121,79,119.8,79.1,118.7,79.1L118.7,79.1z M118.6,78.5c2.8,0,2.8,0,2.7-2.2c0-0.6-0.2-0.8-0.7-0.7
	c-1.2,0-2.5,0-3.7,0c-0.9,0-1.5,0.4-1.5,1.4s0.5,1.4,1.5,1.5C117.4,78.5,118,78.5,118.6,78.5z"/>
<path class="st1" d="M32.4,79c-1.2,0-2.4,0.1-3.6,0c-1.5-0.1-2.1-0.8-2.1-2.1c0-1.2,0.7-2,2.2-2c1.6-0.1,3.3,0,4.9,0
	c0.4,0,1.1,0.3,1.1-0.4c0-0.7,0.3-1.7-0.7-1.9c-1.4-0.4-2.9-0.3-4.4,0c-0.3,0.1-0.6,0.3-0.7,0.6c-0.1,1.6-1.3,0.9-2,0.8
	s-0.4-0.9-0.2-1.4c0.4-0.8,1.2-1,1.9-1c2,0,4.1-0.1,6.1,0c1.6,0.1,2.1,0.7,2.1,2.4c0,1.2-0.1,2.5,0,3.7c0.1,1.1-0.4,1.4-1.4,1.4
	C34.7,79.1,33.5,79.1,32.4,79C32.4,79.1,32.4,79,32.4,79z M32.3,75.5c-0.5,0-1,0-1.4,0c-1.4,0-1.8,0.3-1.9,1.4
	c0,1.1,0.4,1.5,1.8,1.5c1,0,1.9-0.1,2.9,0s1.3-0.3,1.2-1.3c-0.1-1.6,0-1.6-1.7-1.6C33,75.5,32.7,75.5,32.3,75.5z"/>
<path class="st1" d="M155.7,79.1c-1.2,0-2.4,0-3.6,0c-1.5-0.1-2.1-0.7-2.1-2.1c0-1.3,0.7-2,2.1-2.1c1.7-0.1,3.4,0,5,0
	c0.4,0,1.1,0.3,1.1-0.5c0-0.7,0.3-1.6-0.7-1.9c-1.5-0.4-3-0.3-4.5,0c-0.4,0.1-0.7,0.4-0.7,0.8c0.1,0.9-0.6,0.8-1.1,0.7
	c-0.4,0-1,0.3-1.1-0.4c-0.1-0.6-0.1-1.1,0.5-1.5s1.2-0.5,1.9-0.6c1.8,0,3.7,0,5.5,0s2.4,0.6,2.4,2.4c0,1.3,0,2.6,0,3.8
	c0,0.8-0.4,1.2-1.1,1.2C158.2,79.1,157,79.1,155.7,79.1z M155.6,78.5c2.8,0,2.8,0,2.7-2.2c0-0.6-0.2-0.8-0.8-0.7c-1.2,0-2.4,0-3.6,0
	c-0.9,0-1.6,0.3-1.6,1.4s0.6,1.4,1.6,1.5C154.5,78.5,155,78.5,155.6,78.5z"/>
<path class="st1" d="M79.1,79.1c-0.9-0.1-2,0.1-3.1-0.1c-1.3-0.3-2-1.2-2.1-2.5c0-0.6,0-1.1,0-1.7c0-2.1,0.9-3.1,3-3.2
	c1.5-0.1,3-0.1,4.6,0c2.1,0.1,3,1.1,3,3.1c0,0.4,0,0.7,0,1.1c0,2.4-0.9,3.3-3.3,3.3C80.5,79.1,79.9,79.1,79.1,79.1z M82.2,75.4
	c0-2.5-0.5-3-3-3c-2.4,0-2.9,0.5-2.9,2.9c0,2.5,0.5,3.1,2.9,3.1C81.7,78.3,82.2,77.8,82.2,75.4z"/>
<path class="st1" d="M54.4,79.1c-1.3,0-2.6,0-4,0c-1,0-1.6-0.3-1.5-1.5c0.1-1.6,0-3.1,0-4.7c0-0.9,0.4-1.3,1.3-1.3
	c2.6,0,5.2,0,7.8,0c0.9,0,1.3,0.4,1.3,1.3c-0.1,2.9,0.5,3-2.9,2.9c-1.4,0-2.8,0-4.2,0c-0.8,0-1,0.2-0.9,1c0.1,0.6-0.3,1.5,0.9,1.5
	c2,0,4.1,0,6.1,0c0.3,0,0.9-0.3,0.9,0.4c0,0.5-0.6,0.3-0.9,0.3C57,79.1,55.7,79.1,54.4,79.1z M54,75.2c0.6,0,1.2-0.1,1.8,0
	c1.2,0.1,1.3-0.6,1.3-1.5s-0.1-1.5-1.2-1.4c-1,0.1-2.1,0.1-3.1,0c-1.1-0.1-1.4,0.2-1.4,1.4c0,1.2,0.3,1.7,1.5,1.5
	C53.2,75.2,53.6,75.2,54,75.2z"/>
<path class="st1" d="M180.5,79.1c-1.3,0-2.6,0-4,0c-1,0-1.5-0.3-1.4-1.4c0.1-1.6,0-3.2,0-4.8c0-0.9,0.4-1.2,1.2-1.2
	c2.6,0,5.3,0,7.9,0c0.9,0,1.2,0.4,1.2,1.3c0.1,3,0.1,3-2.8,3c-1.4,0-2.8,0-4.2,0c-0.8,0-1.1,0.2-1,1c0.1,0.7-0.2,1.5,1,1.5
	c2,0,3.9,0,5.9,0c0.4,0,1.1-0.3,1.1,0.3c0,0.7-0.7,0.4-1.2,0.4C183,79.1,181.8,79.1,180.5,79.1z M180.1,75.2c0.7,0,1.4,0,2,0
	c1.3,0.1,1-0.8,1-1.5s0.1-1.4-1-1.3s-2.3,0.1-3.5,0c-1-0.1-1.3,0.3-1.3,1.3c0.1,1.6,0,1.6,1.5,1.6C179.3,75.2,179.7,75.2,180.1,75.2
	z"/>
<path class="st1" d="M66.5,75.6c0-0.2,0-0.3,0-0.5c-0.1-0.9,0.4-2-0.2-2.6c-0.5-0.6-1.6-0.1-2.4-0.2c-0.3,0-0.7,0.1-0.7-0.4
	s0.5-0.3,0.7-0.3c0.8-0.1,2,0.4,2.5-0.3c0.4-0.6,0.1-1.6,0.1-2.5c0-1.4,0.3-1.7,1.8-1.7c0.9,0,1.8,0,2.8,0c0.6,0,1.1,0.2,1.3,0.8
	c0.1,0.4,0.4,1.1-0.3,1.2c-0.6,0-1.6,0.7-1.8-0.6c-0.1-0.6-0.3-0.7-0.9-0.7s-0.6,0.4-0.6,0.8c-0.2,2.9-0.2,2.9,2.6,3
	c0.3,0,1-0.3,0.9,0.4c0,0.6-0.6,0.3-1,0.3c-2.6,0.1-2.6,0-2.6,2.6c0,1.1,0,2.2,0,3.2c0,1.1-0.8,0.6-1.3,0.7c-0.5,0-1.1,0.2-1-0.7
	C66.5,77.4,66.5,76.5,66.5,75.6z"/>
<path class="st1" d="M41.9,75.5c0-0.1,0-0.2,0-0.4c0-0.9,0.3-2-0.2-2.6c-0.4-0.6-1.6-0.1-2.4-0.2c-0.3,0-0.7,0.1-0.7-0.4
	c0-0.4,0.4-0.3,0.6-0.3c0.3,0,0.6,0,0.8,0c1.2,0.1,2.1,0,1.8-1.6c-0.2-0.9,0.6-0.7,1-0.7c0.4,0.1,1.2-0.4,1.3,0.6
	c0.1,1.7,0.2,1.6,1.9,1.7c0.5,0,1.4-0.3,1.4,0.4c0,0.7-0.9,0.3-1.4,0.3c-1.8,0.1-1.8,0-1.8,1.8c0,1,0.1,2,0,3
	c-0.1,0.9,0.3,1.2,1.2,1.1c0.2,0,0.5,0,0.7,0c0.3,0,0.6,0,0.6,0.4c0,0.3-0.3,0.3-0.5,0.3c-1,0-2.1,0-3.1,0c-0.8,0-1.1-0.4-1.1-1.2
	C41.9,77.1,41.9,76.3,41.9,75.5z"/>
<path class="st1" d="M134.3,71.7c-0.3,1.3-1.1,1.7-2,1.9c-0.4,0.1-0.8,0-1.2,0c-1,0.1-2.3-0.4-2.9,0.2c-0.5,0.6-0.2,1.9-0.2,2.9
	c0,0.5,0,1,0,1.6c0.1,1-0.7,0.8-1.2,0.8s-1.1,0.2-1.1-0.7c0.1-2,0-4,0-6c0-0.5,0.1-0.9,0.6-0.7c0.6,0.1,1.5-0.5,1.6,0.5
	c0.1,0.8,0.4,0.8,1,0.8c1.1,0,2.2,0,3.1-0.9C132.6,71.4,133.5,71.9,134.3,71.7z"/>
<path class="st1" d="M86.6,75.4c0-1,0-1.9,0-2.9c0-0.5,0-1.1,0.7-0.9c0.5,0.1,1.5-0.6,1.5,0.7c0,0.2-0.1,0.6,0.3,0.6
	c1.1,0,2.4,0.4,3.3-0.5c0.6-0.6,1.3-0.6,2-0.6s0.7,0.3,0.4,0.8c-0.5,0.8-1.3,1-2.2,1.1c-0.9,0-1.8,0.1-2.8,0s-1.2,0.3-1.2,1.2
	c0.1,1.1-0.1,2.2,0,3.2s-0.5,1-1.2,1c-0.9,0.1-1.1-0.3-1-1.1C86.7,77.1,86.6,76.3,86.6,75.4z"/>
<path class="st1" d="M135.7,75.4c0-0.8,0-1.5,0-2.3c0-1.5,0.2-1.7,1.7-1.5c0.3,0,0.6,0.1,0.5,0.4c-0.2,1.1,0.6,0.9,1.2,0.9
	c1.1,0,2,0,2.8-0.9c0.5-0.6,1.4-0.2,2.1-0.2c0.3,0,0.2,0.4,0,0.6c-0.5,0.9-1.3,1.2-2.2,1.2c-1,0-2,0.1-3,0c-0.7,0-1,0.1-1,0.9
	c0.1,1.3,0,2.6,0,3.8c0,0.9-0.5,0.8-1,0.7c-0.5,0-1.3,0.3-1.3-0.7C135.8,77.4,135.7,76.4,135.7,75.4z"/>
<path class="st1" d="M147.9,75.1c0,1-0.1,2.1,0,3.1s-0.6,0.8-1.2,0.8c-0.5,0-1.1,0.2-1.1-0.7c0.1-2.1,0.1-4.2,0-6.3
	c0-1,0.6-0.8,1.1-0.7c0.5,0,1.3-0.2,1.2,0.8C147.9,73,147.9,74.1,147.9,75.1z"/>
<path class="st1" d="M146.8,68.1c0.7,0,1.2-0.1,1.2,0.8c0,1-0.7,0.8-1.2,0.8c-0.6,0-1.1,0.1-1.1-0.9
	C145.7,67.7,146.4,68.2,146.8,68.1z"/>
<path class="st0" d="M22.4,73.1c0,0.6,0,1.3,0,1.9c-0.1,1.8-1.3,3.1-3,3.2c-2.9,0.3-2.9,0.3-2.9-2.6c0-2.2,0-4.3,0-6.5
	c0-1,0.3-1.4,1.3-1.3c0.4,0,0.8,0,1.2,0c2.2,0.2,3.4,1.4,3.4,3.6C22.5,72.1,22.4,72.6,22.4,73.1z"/>
<path class="st0" d="M168.2,77.7c-3.3,0-3.3,0-3.3-3.2c0-1.8,0.4-2.1,2.2-2.1c3.4,0,3.4,0,3.4,3.4C170.6,77.7,170.6,77.7,168.2,77.7
	z"/>
<path class="st0" d="M118.6,78.5c-0.6,0-1.2,0-1.8,0c-0.9,0-1.5-0.5-1.5-1.5s0.6-1.4,1.5-1.4c1.2,0,2.5,0,3.7,0
	c0.6,0,0.7,0.2,0.7,0.7C121.4,78.5,121.4,78.5,118.6,78.5z"/>
<path class="st0" d="M32.3,75.5c0.3,0,0.6,0,1,0c1.7,0,1.6,0,1.7,1.6c0,1-0.2,1.4-1.2,1.3s-1.9,0-2.9,0c-1.4,0-1.8-0.4-1.8-1.5
	s0.4-1.4,1.9-1.4C31.4,75.5,31.9,75.5,32.3,75.5z"/>
<path class="st0" d="M155.6,78.5c-0.6,0-1.1,0-1.7,0c-1,0-1.6-0.3-1.6-1.5s0.6-1.4,1.6-1.4c1.2,0,2.4,0,3.6,0c0.6,0,0.7,0.2,0.8,0.7
	C158.4,78.5,158.4,78.5,155.6,78.5z"/>
<path class="st0" d="M82.2,75.4c0,2.5-0.5,3-3,3c-2.4,0-2.9-0.5-2.9-3.1c0-2.4,0.5-2.9,2.9-2.9C81.7,72.3,82.2,72.8,82.2,75.4z"/>
<path class="st0" d="M54,75.2c-0.4,0-0.8-0.1-1.2,0c-1.2,0.2-1.5-0.3-1.5-1.5c0-1.1,0.4-1.5,1.4-1.4s2.1,0.1,3.1,0
	c1.1-0.1,1.2,0.5,1.2,1.4s-0.1,1.6-1.3,1.5C55.2,75.2,54.6,75.2,54,75.2z"/>
<path class="st0" d="M180.1,75.2c-0.4,0-0.8,0-1.2,0c-1.5,0-1.5,0-1.5-1.6c0-1,0.3-1.4,1.3-1.3c1.1,0.1,2.3,0.1,3.5,0
	c1.1-0.1,1,0.6,1,1.3c0,0.7,0.3,1.6-1,1.5C181.5,75.2,180.8,75.2,180.1,75.2z"/>
<path class="st0" d="M136.3,57.8c-0.9-0.2-1.7-0.4-2.6-0.5c-2.7-0.4-4.1-1.9-4.3-4.5c0-0.6-0.1-1.1-0.1-1.6c0-11.2,0-22.4,0-33.5
	c0-2,0-4,0-6.1c0-1.1,0.2-2.2,0.5-3.3c0.5-1.6,1.4-2.8,3.2-3c1-0.1,2.1-0.3,3.1-0.3c1.9,0.1,0.9-1.3,1.1-2c0.3-1-0.4-1-1.1-1
	c-7,0-14,0-21,0c-0.9,0-1.3,0.3-1.7,1.1c-2.2,4.9-4.4,9.7-6.6,14.6c-0.6,1.4-1.2,2.7-1.8,4.1c-1.2,2.7-2.4,5.4-3.7,8.1
	c-1.7,3.7-3.4,7.4-5.2,11.3C90.9,29.7,85.8,18.5,80.7,7.3c-0.9-2.1-1.9-4.1-2.8-6.2C77.5,0.3,77,0,76.2,0h-21c-0.7,0-1.4,0-1.1,1
	c0.2,0.7-0.8,2.1,1.1,2c1,0,2.1,0.2,3.1,0.3c1.8,0.2,3.7,1.3,4.2,2.9c0.3,1.1,0.5,2.2,0.5,3.3V14c0,0,0,0,0,0c0,12.4,0,24.9,0,37.3
	c0,0.6,0,1.1-0.1,1.6c-0.3,2.5-1.1,3.5-3.5,4.1c-0.9,0.2-1.9,0.4-2.8,0.5c-2.2,0.2-1.7,0-1.8,2c-0.1,0.8,0.2,1.1,1.1,1.1
	c6.2,0,12.5,0,18.8,0c1.9,0,1.8,0,1.9-1.9c0-0.9-0.2-1.3-1.1-1.2c-0.6,0-1.3-0.1-1.9-0.1c-3.2-0.2-4.9-1.5-5.6-4.2
	c-0.3-1.3-0.5-2.6-0.5-3.9c0-5.2,0.1-10.5,0.1-15.8c0-6.9,0.1-13.5,0.1-20.4c0,0,0-0.3,0-0.3v-1.5c0.2,0.4,0.4,0.8,0.6,1.3
	c0,0,0.2,0.4,0.2,0.5c2.4,5.3,4.5,10.2,6.8,15.5c4.6,10.4,9.2,20.7,13.9,31.1c0.2,0.4,0.2,0.9,0.7,1.1c1.2,0.5,2.8-0.1,3.3-1.3
	c6.1-13.9,12.3-27.8,18.4-41.7c0.8-1.8,1.5-3.5,2.3-5.3c0.2-0.4,0.4-0.8,0.6-1.3c0.3,0.4,0.2,0.7,0.2,1c0,1.9,0,3.7,0,5.6
	c0,11.3,0,22.6,0,33.8c0,0.9-0.1,1.7-0.3,2.6c-0.4,1.7-1.5,2.9-3.3,3.2c-1.1,0.1-2.1,0.4-3.2,0.4c-1.9,0.1-1,1.5-1.2,2.3
	c-0.2,1.1,0.6,0.9,1.2,0.9c9.2,0,18.3,0,27.5,0c2,0,2,0,2-2C137.2,58.1,137,57.9,136.3,57.8z"/>
</svg>
